{"title":"Hooking.Up.2009.SWESUB.DVDRip.XviD.AC3.(5.1).-Zen_Bud.avi","uid":5692602,"size":1470094070,"categoryP":"video","categoryS":"movies","magnet":"?xt=urn:btih:2009d9517dd02dbea8064aa3affae38d9697d789&amp;dn=Hooking.Up.2009.SWESUB.DVDRip.XviD.AC3.%285.1%29.-Zen_Bud.avi&amp;tr=udp%3A%2F%2Ftracker.openbittorrent.com%3A80&amp;tr=udp%3A%2F%2Fopen.demonii.com%3A1337&amp;tr=udp%3A%2F%2Ftracker.coppersurfer.tk%3A6969&amp;tr=udp%3A%2F%2Fexodus.desync.com%3A6969","seeders":1,"leechers":1,"uploader":"JHBfromNO","files":1,"time":1279144413,"description":"General\nComplete name                    : Hooking.Up.avi\nFormat                           : AVI\nFile size                        : 1.37 GiB\nDuration                         : 1h 35mn\nOverall bit rate                 : 2 053 Kbps\n\nVideo\nID                               : 0\nFormat                           : MPEG-4 Visual\nCodec ID/Hint                    : XviD\nDuration                         : 1h 35mn\nBit rate                         : 1 594 Kbps\nWidth                            : 720 pixels\nHeight                           : 576 pixels\nDisplay aspect ratio             : 16:9\nStream size                      : 1.06 GiB (78%)\nWriting library                  : XviD 1.1.2 (UTC 2006-11-01)\n\nAudio\n\nFormat                           : AC-3\nDuration                         : 1h 35mn\nBit rate                         : 448 Kbps\nChannel(s)                       : 6 channels\nChannel positions                : Front: L C R, Side: L R, LFE\nSampling rate                    : 48.0 KHz\nStream size                      : 306 MiB (22%)\n\n &lt;a href=&quot;\nhttp://www.imdb.com/title/tt0903606/&quot; rel=&quot;nofollow&quot; target=&quot;_NEW&quot;&gt;\nhttp://www.imdb.com/title/tt0903606/&lt;/a&gt;","torrent":{"xt":"urn:btih:2009d9517dd02dbea8064aa3affae38d9697d789","amp;dn":"Hooking.Up.2009.SWESUB.DVDRip.XviD.AC3.%285.1%29.-Zen_Bud.avi","amp;tr":["udp%3A%2F%2Ftracker.openbittorrent.com%3A80","udp%3A%2F%2Fopen.demonii.com%3A1337","udp%3A%2F%2Ftracker.coppersurfer.tk%3A6969","udp%3A%2F%2Fexodus.desync.com%3A6969"],"infoHash":"2009d9517dd02dbea8064aa3affae38d9697d789","infoHashBuffer":{"type":"Buffer","data":[32,9,217,81,125,208,45,190,168,6,74,163,175,250,227,141,150,151,215,137]},"announce":[],"urlList":[]}}